<mxfile host="app.diagrams.net" modified="2024-02-07T17:25:12.489Z" agent="Mozilla/5.0 (Macintosh; Intel Mac OS X 10_15_7) AppleWebKit/537.36 (KHTML, like Gecko) Chrome/121.0.0.0 Safari/537.36" etag="VumaqW7cN-RCNPXuyt4T" version="23.1.1" type="github">
  <diagram name="Page-1" id="Hzm4S7ZJ2lhQlLQNnbM0">
    <mxGraphModel dx="428" dy="273" grid="1" gridSize="10" guides="1" tooltips="1" connect="1" arrows="1" fold="1" page="1" pageScale="1" pageWidth="1100" pageHeight="850" math="1" shadow="0">
      <root>
        <mxCell id="0" />
        <mxCell id="1" parent="0" />
        <mxCell id="fYAuZWaC3PiL24_Qeqgs-15" style="edgeStyle=orthogonalEdgeStyle;rounded=0;orthogonalLoop=1;jettySize=auto;html=1;" edge="1" parent="1" source="fYAuZWaC3PiL24_Qeqgs-1" target="fYAuZWaC3PiL24_Qeqgs-10">
          <mxGeometry relative="1" as="geometry" />
        </mxCell>
        <mxCell id="fYAuZWaC3PiL24_Qeqgs-16" style="edgeStyle=orthogonalEdgeStyle;rounded=0;orthogonalLoop=1;jettySize=auto;html=1;" edge="1" parent="1" source="fYAuZWaC3PiL24_Qeqgs-1" target="fYAuZWaC3PiL24_Qeqgs-9">
          <mxGeometry relative="1" as="geometry" />
        </mxCell>
        <mxCell id="fYAuZWaC3PiL24_Qeqgs-1" value="$$\exists x, \forall y, f(x)=g(x,y)$$" style="text;html=1;strokeColor=none;fillColor=none;align=center;verticalAlign=middle;whiteSpace=wrap;rounded=0;" vertex="1" parent="1">
          <mxGeometry x="470" y="80" width="150" height="30" as="geometry" />
        </mxCell>
        <mxCell id="fYAuZWaC3PiL24_Qeqgs-2" value="x" style="text;html=1;strokeColor=none;fillColor=none;align=center;verticalAlign=middle;whiteSpace=wrap;rounded=0;" vertex="1" parent="1">
          <mxGeometry x="450" y="150" width="30" height="30" as="geometry" />
        </mxCell>
        <mxCell id="fYAuZWaC3PiL24_Qeqgs-3" value="existential quantifier" style="text;html=1;strokeColor=none;fillColor=none;align=center;verticalAlign=middle;whiteSpace=wrap;rounded=0;" vertex="1" parent="1">
          <mxGeometry x="360" y="150" width="30" height="30" as="geometry" />
        </mxCell>
        <mxCell id="fYAuZWaC3PiL24_Qeqgs-4" value="formula" style="text;html=1;strokeColor=none;fillColor=none;align=center;verticalAlign=middle;whiteSpace=wrap;rounded=0;" vertex="1" parent="1">
          <mxGeometry x="570" y="150" width="30" height="30" as="geometry" />
        </mxCell>
        <mxCell id="fYAuZWaC3PiL24_Qeqgs-5" value="$$\forall y, f(x)=g(x,y)$$" style="text;html=1;strokeColor=none;fillColor=none;align=center;verticalAlign=middle;whiteSpace=wrap;rounded=0;" vertex="1" parent="1">
          <mxGeometry x="620" y="150" width="150" height="30" as="geometry" />
        </mxCell>
        <mxCell id="fYAuZWaC3PiL24_Qeqgs-17" style="edgeStyle=orthogonalEdgeStyle;rounded=0;orthogonalLoop=1;jettySize=auto;html=1;" edge="1" parent="1" source="fYAuZWaC3PiL24_Qeqgs-9" target="fYAuZWaC3PiL24_Qeqgs-2">
          <mxGeometry relative="1" as="geometry" />
        </mxCell>
        <mxCell id="fYAuZWaC3PiL24_Qeqgs-18" style="edgeStyle=orthogonalEdgeStyle;rounded=0;orthogonalLoop=1;jettySize=auto;html=1;" edge="1" parent="1" source="fYAuZWaC3PiL24_Qeqgs-9" target="fYAuZWaC3PiL24_Qeqgs-3">
          <mxGeometry relative="1" as="geometry" />
        </mxCell>
        <mxCell id="fYAuZWaC3PiL24_Qeqgs-9" value="" style="ellipse;whiteSpace=wrap;html=1;aspect=fixed;" vertex="1" parent="1">
          <mxGeometry x="410" y="120" width="20" height="20" as="geometry" />
        </mxCell>
        <mxCell id="fYAuZWaC3PiL24_Qeqgs-11" style="edgeStyle=orthogonalEdgeStyle;rounded=0;orthogonalLoop=1;jettySize=auto;html=1;" edge="1" parent="1" source="fYAuZWaC3PiL24_Qeqgs-10" target="fYAuZWaC3PiL24_Qeqgs-4">
          <mxGeometry relative="1" as="geometry" />
        </mxCell>
        <mxCell id="fYAuZWaC3PiL24_Qeqgs-13" style="edgeStyle=orthogonalEdgeStyle;rounded=0;orthogonalLoop=1;jettySize=auto;html=1;exitX=1;exitY=0.5;exitDx=0;exitDy=0;" edge="1" parent="1" source="fYAuZWaC3PiL24_Qeqgs-10" target="fYAuZWaC3PiL24_Qeqgs-5">
          <mxGeometry relative="1" as="geometry" />
        </mxCell>
        <mxCell id="fYAuZWaC3PiL24_Qeqgs-10" value="" style="ellipse;whiteSpace=wrap;html=1;aspect=fixed;" vertex="1" parent="1">
          <mxGeometry x="640" y="120" width="20" height="20" as="geometry" />
        </mxCell>
      </root>
    </mxGraphModel>
  </diagram>
</mxfile>
